<svg xmlns="http://www.w3.org/2000/svg" viewBox="0 0 900 260" width="900" height="260">
  <defs>
    <radialGradient id="centerGlow" cx="50%" cy="50%" r="45%">
      <stop offset="0%" stop-color="rgba(124,58,237,0.09)"/>
      <stop offset="100%" stop-color="rgba(4,4,10,0)"/>
    </radialGradient>
  </defs>

  <rect width="900" height="260" fill="#04040a"/>
  <rect width="900" height="260" fill="url(#centerGlow)"/>

  <!-- Left cluster edges -->
  <g stroke="rgba(124,58,237,0.28)" stroke-width="1" fill="none">
    <line x1="32" y1="42" x2="118" y2="92"/>
    <line x1="32" y1="42" x2="172" y2="38"/>
    <line x1="118" y1="92" x2="62" y2="162"/>
    <line x1="118" y1="92" x2="288" y2="108"/>
    <line x1="118" y1="92" x2="172" y2="38"/>
    <line x1="118" y1="92" x2="158" y2="148"/>
    <line x1="62" y1="162" x2="28" y2="218"/>
    <line x1="62" y1="162" x2="198" y2="192"/>
    <line x1="172" y1="38" x2="288" y2="108"/>
    <line x1="198" y1="192" x2="88" y2="248"/>
    <line x1="198" y1="192" x2="322" y2="218"/>
    <line x1="288" y1="108" x2="322" y2="218"/>
    <line x1="288" y1="108" x2="158" y2="148"/>
    <line x1="88" y1="248" x2="28" y2="218"/>
    <line x1="158" y1="148" x2="198" y2="192"/>
  </g>

  <!-- Right cluster edges -->
  <g stroke="rgba(124,58,237,0.28)" stroke-width="1" fill="none">
    <line x1="868" y1="42" x2="782" y2="92"/>
    <line x1="868" y1="42" x2="728" y2="38"/>
    <line x1="782" y1="92" x2="838" y2="162"/>
    <line x1="782" y1="92" x2="612" y2="108"/>
    <line x1="782" y1="92" x2="728" y2="38"/>
    <line x1="782" y1="92" x2="742" y2="148"/>
    <line x1="838" y1="162" x2="872" y2="218"/>
    <line x1="838" y1="162" x2="702" y2="192"/>
    <line x1="728" y1="38" x2="612" y2="108"/>
    <line x1="702" y1="192" x2="812" y2="248"/>
    <line x1="702" y1="192" x2="578" y2="218"/>
    <line x1="612" y1="108" x2="578" y2="218"/>
    <line x1="612" y1="108" x2="742" y2="148"/>
    <line x1="812" y1="248" x2="872" y2="218"/>
    <line x1="742" y1="148" x2="702" y2="192"/>
  </g>

  <!-- Left cluster nodes -->
  <circle cx="32"  cy="42"  r="4.5" fill="rgba(124,58,237,0.5)"/>
  <circle cx="118" cy="92"  r="7"   fill="rgba(124,58,237,0.65)"/>
  <circle cx="62"  cy="162" r="5"   fill="rgba(124,58,237,0.5)"/>
  <circle cx="172" cy="38"  r="5.5" fill="rgba(124,58,237,0.55)"/>
  <circle cx="198" cy="192" r="5"   fill="rgba(124,58,237,0.5)"/>
  <circle cx="288" cy="108" r="8"   fill="rgba(157,95,240,0.7)"/>
  <circle cx="88"  cy="248" r="4.5" fill="rgba(124,58,237,0.45)"/>
  <circle cx="322" cy="218" r="5.5" fill="rgba(124,58,237,0.5)"/>
  <circle cx="28"  cy="218" r="4"   fill="rgba(124,58,237,0.4)"/>
  <circle cx="158" cy="148" r="5"   fill="rgba(124,58,237,0.5)"/>

  <!-- Right cluster nodes -->
  <circle cx="868" cy="42"  r="4.5" fill="rgba(124,58,237,0.5)"/>
  <circle cx="782" cy="92"  r="7"   fill="rgba(124,58,237,0.65)"/>
  <circle cx="838" cy="162" r="5"   fill="rgba(124,58,237,0.5)"/>
  <circle cx="728" cy="38"  r="5.5" fill="rgba(124,58,237,0.55)"/>
  <circle cx="702" cy="192" r="5"   fill="rgba(124,58,237,0.5)"/>
  <circle cx="612" cy="108" r="8"   fill="rgba(157,95,240,0.7)"/>
  <circle cx="812" cy="248" r="4.5" fill="rgba(124,58,237,0.45)"/>
  <circle cx="578" cy="218" r="5.5" fill="rgba(124,58,237,0.5)"/>
  <circle cx="872" cy="218" r="4"   fill="rgba(124,58,237,0.4)"/>
  <circle cx="742" cy="148" r="5"   fill="rgba(124,58,237,0.5)"/>

  <!-- Title -->
  <text x="450" y="128"
        text-anchor="middle"
        fill="#eeedf5"
        font-size="92"
        font-weight="700"
        font-family="-apple-system, BlinkMacSystemFont, 'Segoe UI', system-ui, Helvetica, sans-serif"
        letter-spacing="-5">Bibbo</text>

  <!-- Subtitle -->
  <text x="450" y="174"
        text-anchor="middle"
        fill="rgba(107,104,128,0.82)"
        font-size="18"
        font-family="-apple-system, BlinkMacSystemFont, 'Segoe UI', system-ui, Helvetica, sans-serif"
        letter-spacing="0.5">Think in connections, not folders.</text>
</svg>
